<?xml version="1.0" encoding="UTF-8"?><svg id="Layer_2" xmlns="http://www.w3.org/2000/svg" viewBox="0 0 349.03 335.06"><defs><style>.cls-1{fill:#23e2d4;stroke-width:0px;}</style></defs><g id="_3"><path class="cls-1" d="M315.7,104.33l-30.23,2.18c-33.19,2.4-63.43-19.03-72.18-51.14l-8.86-32.52c-8.3-30.48-51.54-30.48-59.84,0l-8.86,32.52c-8.75,32.11-38.99,53.53-72.18,51.14l-30.23-2.18c-31.33-2.26-45.78,38.13-20.13,56.26l30.05,21.23c25.99,18.36,36.21,52.01,24.84,81.73l-11.19,29.25c-11.11,29.03,22.64,54.53,47.53,35.92l28.41-21.24c24.72-18.48,58.65-18.48,83.36,0l28.41,21.24c24.89,18.61,58.64-6.89,47.53-35.92l-11.19-29.25c-11.37-29.72-1.14-63.36,24.84-81.73l30.05-21.23c25.65-18.13,11.2-58.52-20.13-56.26Z"/></g></svg>