<?xml version="1.0" encoding="UTF-8"?><svg id="Layer_2" xmlns="http://www.w3.org/2000/svg" viewBox="0 0 441.82 406.02"><defs><style>.cls-1{fill:#1bad39;stroke-width:0px;}</style></defs><g id="_2"><path class="cls-1" d="M350.5,376.6c-57.31,14-109.84-4.36-118.22-52.69-1.39-7.99,1.88-59.11-31.69-35.5-21.31,14.99-16.07,39.39-15.61,56.01.57,20.51-23.46,58.46-125.36,61.54s-49.58-106.56-15.39-133.34c11.5-9.01,50.81-50.39,2.59-87.2C-1.4,148.6,54-3.21,120.98,59.5c66.98,62.71,83.71-1.49,98.19-19.94C231.84,23.42,243.11,3.66,293.25.24c38.29-2.61,70.94,16.26,72.65,50.45s-14.4,53.49-44.97,60.99c-52.72,12.93-14.62,32-39.99,56.79-31.05,30.34-6.72,61.96,62.88,26.13,55.53-28.58,98.37,37.18,98,84.93-.36,46.8-45.86,85.95-91.32,97.06Z"/></g></svg>