<?xml version="1.0" encoding="UTF-8"?><svg id="Layer_2" xmlns="http://www.w3.org/2000/svg" viewBox="0 0 541.88 337.38"><defs><style>.cls-1{fill:#3639de;stroke-width:0px;}</style></defs><g id="_4"><path class="cls-1" d="M1.44,317.57c29.58-62,80.92-144.37,133.85-205.32,4.62-5.32,13.21-1.34,12.25,5.64-.02.11-.03.23-.05.34-1.48,11.26,1.33,23.74,9.95,31.14,9.36,8.04,23.51,8.29,35.02,3.86,11.51-4.44,21-12.8,30.21-21L367.43,3.44c10.54-9.38,26.51,2.05,21,15.04-5.16,12.15-9.31,24.67-11.89,37.68-7.47,37.74,1.05,81.13,30.93,105.36,23.06,18.7,55.14,23.12,84.48,18.51,13.05-2.05,25.71-5.69,38.12-10.21,8.96-3.26,15.94,8.13,8.98,14.65l-29.72,27.83c-11.72,10.98-24.53,25.36-20.54,40.91,2.97,11.58,11.79,21.45,23.22,24.97.12.04.25.08.37.11,7.61,2.31,7.43,13.12-.28,15.12-27.17,7.06-47.42,14.96-66.37,29.48-13.37,10.24-31.7,11.31-45.88,2.22-43.54-27.93-106.33-47.25-152.49-48.67-49.36-1.52-99.39.8-146.82,14.57-31.68,9.2-51.81,20.48-77.54,42.86-11.31,9.84-28.02-2.77-21.57-16.3Z"/></g></svg>