<?xml version="1.0" encoding="UTF-8"?><svg id="Layer_2" xmlns="http://www.w3.org/2000/svg" viewBox="0 0 483.5 237.77"><defs><style>.cls-1{fill:#eb1530;stroke-width:0px;}</style></defs><g id="_6"><path class="cls-1" d="M481.6,98c-.89-5.52-2.38-10.93-4.39-16.15-2.8-7.27-5.92-14.48-10.06-21.1-4.09-6.53-8.89-12.76-14.15-18.39-5.17-5.53-11.17-10.26-17.31-14.64-6.14-4.38-12.76-7.31-19.7-10.21-4.87-2.04-9.91-3.52-15.13-4.35-3.56-1.11-7.11-1.27-10.67-.48-3.56.16-6.87,1.22-9.94,3.17-5.55,3.25-10.84,9.61-12.29,15.99-1.56,6.85-1.22,14.53,2.7,20.61,3.53,5.47,9.26,11.23,15.99,12.29,3.97.63,7.84,1.63,11.61,2.98,3.49,1.7,6.83,3.68,10.01,5.91,3.58,3.04,6.89,6.39,9.92,9.99,2.95,4.17,5.52,8.57,7.7,13.19,1.67,4.49,2.96,9.11,3.84,13.82.37,4.47.36,8.96-.03,13.43-.9,4.93-2.25,9.76-4,14.45-2.25,4.75-4.91,9.28-7.95,13.56-3.3,3.93-6.93,7.57-10.85,10.87-3.82,2.69-7.84,5.06-12.06,7.08-4.53,1.66-9.2,2.9-13.95,3.76-2.16.19-4.33.31-6.5.35,1.71-2.28,3.22-4.59,4.54-7.25,2.33-4.72,4.46-9.66,5.98-14.72,1.56-5.17,2.19-10.57,2.81-15.91.36-3.09.47-6.2.23-9.31-.39-5.29-1.03-10.79-2.54-15.92-1.29-4.4-3.24-8.62-5.17-12.78-1.39-3-2.94-5.93-4.68-8.75-6.34-10.26-14.48-19.34-24.8-25.71-3.57-2.2-7.6-3.73-11.47-5.25-1.98-.78-4.03-1.35-6.13-1.69-4.3-.71-8.78-1.48-13.18-1.34-4.7.16-9.47.83-14.05,1.88-3.86.89-7.45,2.42-11.09,3.95-3.43,1.45-6.99,2.81-10.05,4.98-7.51,5.34-13.22,11.39-18.13,19.28-1.4,2.25-2.62,4.61-3.7,7.03-1.95,4.4-3.92,8.87-5.36,13.48-2.2,7.03-3.37,14.6-3.71,21.92-.21,4.57.53,8.95,1.17,13.49.43,3.03,1.09,5.99,2.04,8.9,2.62,7.94,6.23,15.78,11.09,22.61.51.72,1.03,1.44,1.56,2.16-10.04,3.7-20.41,6.39-30.99,8.07-12.18,1.34-24.47,1.33-36.65-.05-6.68-1.08-13.27-2.57-19.69-4.67,9.61-4.15,19.05-8.83,27.72-14.53,13.45-8.86,25.7-20.23,32.68-34.99,3.08-6.52,6.02-13.35,7.17-20.52,1.62-10.09,2.02-19.62-.77-29.64-2.87-10.32-8.55-19.45-15.83-27.22-7.16-7.65-15.75-12.73-25.47-16.34-4.48-1.66-9.44-2.14-14.13-2.63-2.47-.26-4.94-.25-7.42,0-7.01.72-13.68,1.8-20.22,4.42-6.9,2.77-13.95,5.58-19.98,10.01-6.88,5.06-13.11,10.35-18.48,16.98-5.23,6.46-10.27,13.17-14.6,20.28-2,3.28-3.47,6.78-4.96,10.32-1.54,3.66-3.02,7.28-4.1,11.1-2.22,7.79-3.29,15.99-3.98,24.03-.48,5.55-.49,11.14-.09,16.7-7.61.76-15.25,1.06-22.87.39-3.21-.6-6.37-1.4-9.45-2.47-1.71-.87-3.37-1.83-4.97-2.88-1.2-1.08-2.34-2.23-3.42-3.42-1.14-1.73-2.17-3.52-3.1-5.38-1.02-2.94-1.82-5.94-2.41-9-.34-4.19-.32-8.4.04-12.6.78-4.27,1.91-8.47,3.4-12.56,2.37-4.94,5.24-9.62,8.43-14.07,8.2-10,17.89-18.61,28.03-26.62,3.58-2.72,7.19-5.41,10.81-8.08,3.12-1.68,5.62-3.98,7.5-6.89,2.36-2.58,3.96-5.62,4.79-9.1,1.76-6.4.97-14.93-2.7-20.61-3.68-5.71-9.16-10.74-15.99-12.29-6.59-1.5-14.93-1.49-20.61,2.7C53.79,21.06,29.92,39.05,14.64,64.8c-3.95,6.65-7.14,13.87-9.62,21.18-2.48,7.28-3.53,14.8-4.45,22.42-.65,5.41-.76,10.88-.24,16.31.71,7.36,1.7,14.89,4.12,21.92,2.36,6.84,5.3,13.88,9.53,19.82,2.71,3.8,5.56,7.63,8.84,10.98,3.32,3.39,7.22,6.25,11.03,9.04,2.53,1.85,5.24,3.44,8.08,4.77,4.67,2.19,9.5,4.28,14.47,5.72,8.05,2.33,16.64,3.35,24.99,3.71,6.18.27,12.38-.04,18.53-.67,6.02-.61,12.03-1.38,18.02-2.32,3.13,3.91,6.52,7.58,10.43,10.77,5.93,4.84,12.02,9.36,18.82,12.89,12,6.22,24.85,10.67,38.15,13.02,15.45,2.73,31.13,4.12,46.8,3.01,15.51-1.1,31.1-3.69,45.9-8.51,8.4-2.73,16.62-6.15,24.61-9.9,3.92-1.84,7.69-3.95,11.5-5.99,1.94.97,3.89,1.91,5.88,2.77,7.43,3.21,14.84,6.23,22.71,8.15,7.91,1.93,16.12,3.07,24.24,3.57,7.08.44,14-.13,21.02-1.08,14.52-1.95,28.51-6.43,41.1-14.1,6.54-3.98,12.72-8.76,18.36-13.92,5.67-5.18,10.34-11.13,14.97-17.25,3.43-4.53,6.42-9.38,8.92-14.48,3.36-6.88,6.39-14.11,8.4-21.52,2.06-7.63,3.18-15.63,3.64-23.51.46-7.94-.52-15.8-1.79-23.64ZM174.83,92.17c2.4-1.6,4.92-3,7.52-4.24,2.12-.77,4.27-1.42,6.47-1.92.66-.02,1.32-.03,1.98-.02.29.07.57.15.86.23.54.3,1.07.62,1.59.95.98.9,1.91,1.85,2.8,2.84.46.73.9,1.47,1.32,2.23.19.63.37,1.27.52,1.91.03.99.02,1.98-.03,2.98-.44,1.98-1.01,3.93-1.68,5.84-1.12,2.27-2.37,4.46-3.77,6.57-2.01,2.27-4.18,4.39-6.48,6.36-8.78,6.25-18.57,11.16-28.45,15.48-1.37.55-2.74,1.1-4.12,1.63.08-1.41.17-2.81.31-4.21.79-4.55,1.91-9.03,3.46-13.38,2.42-4.88,5.49-9.46,8.72-13.85,2.76-3.36,5.72-6.52,8.98-9.38ZM314.26,145.82c-1.97-2.81-3.74-5.74-5.27-8.81-.64-1.86-1.17-3.75-1.6-5.67-.05-1.41-.01-2.81.08-4.21.65-3.26,1.56-6.47,2.69-9.6.96-1.96,2.03-3.88,3.21-5.71.21-.23.43-.45.64-.67.49-.27.97-.54,1.47-.79,1.51-.52,3.04-.97,4.59-1.33.51-.01,1.02-.02,1.53,0,.29.08.58.16.88.24.56.31,1.1.64,1.64.98,1.23,1.13,2.39,2.33,3.49,3.59,2.15,3.15,4.04,6.47,5.71,9.91.47,1.4.85,2.83,1.17,4.27.09,1.79.07,3.58-.04,5.37-.5,2.38-1.17,4.72-1.97,7.02-.35.71-.72,1.4-1.12,2.08-.58.58-1.18,1.14-1.8,1.68-3.45,2.42-7.06,4.61-10.75,6.65-1.58-1.61-3.1-3.27-4.55-4.99Z"/></g></svg>