<?xml version="1.0" encoding="UTF-8"?><svg id="Layer_2" xmlns="http://www.w3.org/2000/svg" viewBox="0 0 543.08 543.08"><defs><style>.cls-1{fill:#f2f106;stroke-width:0px;}</style></defs><g id="_1"><path class="cls-1" d="M498.41,226.88l-152.03,26.56c-12.85,2.25-19.8-14.52-9.12-22.02l126.28-88.72c17.44-17.44,17.44-45.72,0-63.16h0c-17.44-17.44-45.72-17.44-63.16,0l-88.72,126.28c-7.5,10.68-24.27,3.73-22.02-9.12l26.56-152.03c0-24.67-20-44.66-44.66-44.66h0c-24.67,0-44.66,20-44.66,44.66l26.56,152.03c2.25,12.85-14.52,19.8-22.02,9.12l-88.72-126.28c-17.44-17.44-45.72-17.44-63.16,0h0c-17.44,17.44-17.44,45.72,0,63.16l126.28,88.72c10.68,7.5,3.73,24.27-9.12,22.02l-152.03-26.56c-24.67,0-44.66,20-44.66,44.66h0c0,24.67,20,44.66,44.66,44.66l152.03-26.56c12.85-2.25,19.8,14.52,9.12,22.02l-126.28,88.72c-17.44,17.44-17.44,45.72,0,63.16h0c17.44,17.44,45.72,17.44,63.16,0l88.72-126.28c7.5-10.68,24.27-3.73,22.02,9.12l-26.56,152.03c0,24.67,20,44.66,44.66,44.66h0c24.67,0,44.66-20,44.66-44.66l-26.56-152.03c-2.25-12.85,14.52-19.8,22.02-9.12l88.72,126.28c17.44,17.44,45.72,17.44,63.16,0h0c17.44-17.44,17.44-45.72,0-63.16l-126.28-88.72c-10.68-7.5-3.73-24.27,9.12-22.02l152.03,26.56c24.67,0,44.66-20,44.66-44.66h0c0-24.67-20-44.66-44.66-44.66Z"/></g></svg>