<?xml version="1.0" encoding="UTF-8"?>
<svg id="Layer_3" data-name="Layer 3" xmlns="http://www.w3.org/2000/svg" viewBox="0 0 1000 246.66">
  <defs>
    <style>
      .cls-1 {
        stroke-width: 0px;
      }
    </style>
  </defs>
  <g>
    <path class="cls-1" d="M242.88,105.6c28.18,0,51.94,22.55,51.94,51.94s-23.35,51.4-51.94,51.4-51.94-22.95-51.94-51.4,23.75-51.94,51.94-51.94ZM242.88,191.75c18.92,0,33.55-15.97,33.55-34.36s-14.9-34.62-33.55-34.62-33.55,15.57-33.55,34.62,14.63,34.36,33.55,34.36Z"/>
    <path class="cls-1" d="M307.82,107.61h30.46c11.41,0,18.52,2.15,24.16,6.71,5.64,4.56,11.68,12.61,11.68,24.02,0,6.58-2.42,16.91-9.53,23.75-5.9,5.64-11.54,6.98-16.51,8.19l26.97,36.64h-22.28l-26.3-37.98h-.27v37.98h-18.39v-99.31ZM326.21,155.12h11.81c15.16,0,17.71-10.06,17.71-15.3,0-5.5-3.35-15.03-17.71-15.03h-11.81v30.33Z"/>
    <path class="cls-1" d="M386.73,107.61h18.39v99.31h-18.39v-99.31Z"/>
    <path class="cls-1" d="M459.47,156.32h64.82v2.15c0,28.32-24.83,50.46-52.61,50.46s-53.41-21.87-53.41-51.67,24.83-51.67,52.88-51.67c24.96,0,43.08,16.91,48.18,31.13h-22.01c-4.29-6.58-13.42-13.96-26.57-13.96-22.41,0-34.09,19.06-34.09,34.62s11.41,34.36,35.03,34.36c12.21,0,23.62-6.71,29.39-18.25h-41.6v-17.18Z"/>
    <path class="cls-1" d="M537.03,107.61h18.39v99.31h-18.39v-99.31Z"/>
    <path class="cls-1" d="M574.34,107.61h20.93l41.07,72.2h.27v-72.2h18.39v99.31h-20.53l-41.47-72.2h-.27v72.2h-18.38v-99.31Z"/>
    <path class="cls-1" d="M706.52,107.61h14.36l41.6,99.31h-20.26l-10.6-25.63h-35.56l-10.6,25.63h-20.26l41.33-99.31ZM702.22,163.97h22.81l-11.27-30.46h-.27l-11.27,30.46Z"/>
    <path class="cls-1" d="M773.21,107.61h18.39v82.13h30.33v17.18h-48.72v-99.31Z"/>
    <path class="cls-1" d="M832.26,107.61h18.39v99.31h-18.39v-99.31Z"/>
    <path class="cls-1" d="M879.36,124.79h-18.38v-17.18h55.29v17.18h-18.52v82.13h-18.39v-82.13Z"/>
    <path class="cls-1" d="M948.87,170.28l-32.61-62.67h20.13l21.61,45.63,21.74-45.63h20.26l-32.75,62.67v36.64h-18.38v-36.64Z"/>
  </g>
  <g>
    <path class="cls-1" d="M222.35,76.62c.53,5.56,4.21,7.44,7.37,7.44,4.06,0,7.67-2.78,7.67-6.99,0-5.71-3.68-6.76-10.6-9.4-4.28-1.65-13.23-4.28-13.23-16.01,0-8.87,6.92-15.86,16.31-15.86,6.46,0,15.94,4.51,16.46,15.86h-10.52c-.45-4.96-3.46-6.24-6.24-6.24-3.23,0-5.71,2.33-5.71,5.64,0,4.81,3.61,5.86,9.25,7.74,4.58,1.5,14.58,5.04,14.58,17.14s-9.32,17.74-18.04,17.74c-7.14,0-17.51-4.81-18.11-17.06h10.82Z"/>
    <path class="cls-1" d="M255.04,36.93h10.3v22.62h19.92v-22.62h10.3v55.62h-10.3v-23.38h-19.92v23.38h-10.3v-55.62Z"/>
    <path class="cls-1" d="M324.49,36.93h8.04l23.3,55.62h-11.35l-5.94-14.36h-19.92l-5.94,14.36h-11.35l23.15-55.62ZM322.08,68.5h12.78l-6.31-17.06h-.15l-6.31,17.06Z"/>
    <path class="cls-1" d="M361.84,36.93h13.98c5.94,0,11.05,0,16.31,4.44,3.61,3.31,5.26,7.59,5.26,12.78s-1.65,9.47-5.26,12.78c-5.26,4.44-10.37,4.44-16.31,4.44h-3.68v21.2h-10.3v-55.62ZM372.14,61.73h3.31c4.44,0,11.65-.3,11.65-7.59s-7.07-7.59-11.27-7.59h-3.68v15.18Z"/>
    <path class="cls-1" d="M403.1,36.93h29.92v9.62h-19.62v13.6h18.79v9.62h-18.79v13.15h19.62v9.62h-29.92v-55.62Z"/>
    <path class="cls-1" d="M476.76,72.03l-18.27-35.1h11.27l12.1,25.56,12.18-25.56h11.35l-18.34,35.1v20.52h-10.3v-20.52Z"/>
    <path class="cls-1" d="M536.81,35.8c15.78,0,29.09,12.63,29.09,29.09s-13.08,28.79-29.09,28.79-29.09-12.85-29.09-28.79,13.3-29.09,29.09-29.09ZM536.81,84.06c10.6,0,18.79-8.94,18.79-19.24s-8.34-19.39-18.79-19.39-18.79,8.72-18.79,19.39,8.19,19.24,18.79,19.24Z"/>
    <path class="cls-1" d="M582.88,36.93l-.08,35.33c0,2.78,0,11.8,9.62,11.8s9.62-9.02,9.62-11.8v-35.33h10.3v35.33c0,4.51-.6,9.47-3.23,13.15-3.23,4.51-9.02,8.27-16.61,8.27-8.49,0-14.13-4.74-16.54-7.97-1.8-2.41-3.46-6.61-3.46-13.45v-35.33h10.37Z"/>
    <path class="cls-1" d="M621.29,36.93h17.06c6.39,0,10.37,1.2,13.53,3.76,3.16,2.56,6.54,7.07,6.54,13.45,0,3.68-1.35,9.47-5.34,13.3-3.31,3.16-6.46,3.91-9.25,4.58l15.11,20.52h-12.48l-14.73-21.27h-.15v21.27h-10.3v-55.62ZM631.59,63.54h6.61c8.49,0,9.92-5.64,9.92-8.57,0-3.08-1.88-8.42-9.92-8.42h-6.61v16.99Z"/>
  </g>
  <path class="cls-1" d="M55.97,95.17c-17.16,8.21-22.41,14.97-33.12,25.64-11.78,11.72-19.64,29.06-22.15,45.48-2.51,16.42,1.75,34.14,12.88,46.47,11.14,12.33,28.82,15.99,45.24,13.48,7.13-1.09,21.23-6.04,30.69-14.99,9.79-9.25,13.85-21.66,5.33-30.44-8.74-9.01-14.61-.11-24.68,1.74-13.87,2.55-23.07-4.96-30.11-17.18-7.04-12.22-5.52-28.79,3.63-39.52,13.5-15.83,37.74-15.28,50.59-31.64,10.35-13.17,5.76-28.28,9.3-40.48,4.56-15.71,17.07-28.88,32.52-34.26,9.33-3.25,20.43-3.49,28.38,2.39,8.37,6.19,11.19,17.54,11.1,27.95-.22,25.93-16.03,51.13-39.28,62.61-10.99,5.43-23.35,7.98-33.7,14.54-10.35,6.56-18.51,19.33-14.25,30.82,4.29,11.54,19.46,15.86,31.17,12.07,11.71-3.8,20.5-13.41,28.13-23.08,14.15-17.95,30.18-36.55,36.13-58.12,5.95-21.58,5.4-46.88-2.79-61.52-8.19-14.64-23.7-24.94-40.37-26.79-11.19-1.24-22.47,1.11-33.26,4.32-10.23,3.04-20.49,7.02-28.44,14.15-8.57,7.69-13.99,19.36-13.84,38.99.15,19.63,4.54,30.84-9.1,37.36Z"/>
</svg>