<?xml version="1.0" encoding="UTF-8"?><svg id="Layer_2" xmlns="http://www.w3.org/2000/svg" viewBox="0 0 947.32 245.93"><defs><style>.cls-1{stroke-width:0px;}</style></defs><path class="cls-1" d="M88.84,64.14c4.15-10.03,12.57-15.59,27.07-17.88,15.36-2.42,31.79,1.89,41.82,14.67,8.42,10.72,10.15,29.36,6.77,41.12-3.34,11.61-8.71,24.11-15.61,33.45-5.27,7.14-12.62,14.52-17.11,18.3-4.34,3.66-11.08,8.63-16.81,9.96s-11.98-.32-14.1-6.29c-1.22-3.45,1.83-8.14.6-11.58-1.5-4.23-6.12-7.35-10.36-8.29-4.17-.92-11.79-2.12-15.44-1.38-13.42,2.74-23.31,7.45-31.76,16.11-8.13,8.34-10.48,24.45-1.84,37.59,5.43,8.25,14.24,14.04,22.77,16.5,8.85,2.56,17.48,1.97,25.79.44,46.51-8.53,85.86-46.23,96.55-99.73,2.21-11.08,3.13-22.74-.11-34.22-3.2-11.36-10.79-22.28-22.22-28.48-10.28-5.57-22.45-6.76-33.49-5.99-35.43,2.49-59.48,20.49-65.2,49.47-1.09,5.54-5.18,16.67-8.68,20.5-4.66,5.1-12.9,6.08-19.29,7.68-11.01,2.75-21.31,13.59-26.76,23-5.69,9.81-8.14,17.51-10.24,29.52-2.08,11.87-1.87,33.35,4.72,46.67,5.11,10.33,12.44,19.69,21.55,25.37,9.51,5.92,17.05,6.25,25.42,3.97,8.01-2.18,10.06-6.6,11.17-9.64s1.62-10.67-1.1-14.3c-5.02-6.71-12.6-5.96-18.97-8.1-8.43-2.82-15.81-8.08-21.06-19.17-4.22-8.91-6.12-25.99-4.89-34.12,3.25-21.42,7.46-34.97,23.01-37.74,14.18-2.53,32.65-.25,39.14-6.6,6.67-6.53,6.78-11.13,7.13-25.1.15-6.06-2.52-15.87,1.55-25.72Z"/><path class="cls-1" d="M182.08,91.48h29.45c11.03,0,17.9,2.08,23.35,6.49,5.45,4.41,11.29,12.19,11.29,23.22,0,6.36-2.34,16.35-9.21,22.96-5.71,5.45-11.16,6.75-15.96,7.91l26.08,35.42h-21.54l-25.43-36.71h-.26v36.71h-17.77v-96ZM199.86,137.4h11.42c14.66,0,17.12-9.73,17.12-14.79,0-5.32-3.24-14.53-17.12-14.53h-11.42v29.32Z"/><path class="cls-1" d="M258.36,91.48h17.77v96h-17.77v-96Z"/><path class="cls-1" d="M328.68,138.57h62.66v2.08c0,27.37-24,48.78-50.85,48.78s-51.63-21.15-51.63-49.95,24-49.95,51.11-49.95c24.13,0,41.64,16.35,46.57,30.1h-21.28c-4.15-6.36-12.97-13.49-25.69-13.49-21.66,0-32.95,18.42-32.95,33.47s11.03,33.21,33.86,33.21c11.81,0,22.83-6.49,28.41-17.64h-40.22v-16.61Z"/><path class="cls-1" d="M403.66,91.48h17.77v96h-17.77v-96Z"/><path class="cls-1" d="M439.72,91.48h20.24l39.7,69.8h.26v-69.8h17.77v96h-19.85l-40.09-69.8h-.26v69.8h-17.77v-96Z"/><path class="cls-1" d="M216.55,47.81c.51,5.38,4.07,7.19,7.12,7.19,3.92,0,7.41-2.69,7.41-6.76,0-5.52-3.56-6.54-10.25-9.08-4.14-1.6-12.79-4.14-12.79-15.48,0-8.57,6.68-15.33,15.77-15.33,6.25,0,15.4,4.36,15.91,15.33h-10.17c-.44-4.8-3.34-6.03-6.03-6.03-3.12,0-5.52,2.25-5.52,5.45,0,4.65,3.49,5.67,8.94,7.48,4.43,1.45,14.1,4.87,14.1,16.57s-9.01,17.15-17.44,17.15c-6.9,0-16.93-4.65-17.51-16.49h10.46Z"/><path class="cls-1" d="M248.16,9.44h9.95v21.87h19.26V9.44h9.96v53.77h-9.96v-22.6h-19.26v22.6h-9.95V9.44Z"/><path class="cls-1" d="M315.3,9.44h7.77l22.53,53.77h-10.97l-5.74-13.88h-19.26l-5.74,13.88h-10.97l22.38-53.77ZM312.97,39.96h12.35l-6.1-16.49h-.15l-6.1,16.49Z"/><path class="cls-1" d="M351.4,9.44h13.52c5.74,0,10.68,0,15.77,4.29,3.49,3.2,5.09,7.34,5.09,12.35s-1.6,9.16-5.09,12.35c-5.09,4.29-10.03,4.29-15.77,4.29h-3.56v20.49h-9.95V9.44ZM361.36,33.42h3.2c4.29,0,11.26-.29,11.26-7.34s-6.83-7.34-10.9-7.34h-3.56v14.68Z"/><path class="cls-1" d="M391.29,9.44h28.92v9.3h-18.96v13.15h18.17v9.3h-18.17v12.72h18.96v9.3h-28.92V9.44Z"/><path class="cls-1" d="M462.5,43.38l-17.66-33.93h10.9l11.7,24.71,11.77-24.71h10.97l-17.73,33.93v19.84h-9.95v-19.84Z"/><path class="cls-1" d="M520.55,8.35c15.26,0,28.12,12.21,28.12,28.12s-12.64,27.83-28.12,27.83-28.12-12.43-28.12-27.83,12.86-28.12,28.12-28.12ZM520.55,55c10.25,0,18.17-8.65,18.17-18.6s-8.07-18.75-18.17-18.75-18.17,8.43-18.17,18.75,7.92,18.6,18.17,18.6Z"/><path class="cls-1" d="M565.09,9.44l-.07,34.15c0,2.69,0,11.41,9.3,11.41s9.3-8.72,9.3-11.41V9.44h9.96v34.15c0,4.36-.58,9.16-3.12,12.72-3.12,4.36-8.72,7.99-16.06,7.99-8.21,0-13.66-4.58-15.99-7.7-1.74-2.33-3.34-6.39-3.34-13.01V9.44h10.03Z"/><path class="cls-1" d="M602.22,9.44h16.49c6.18,0,10.03,1.16,13.08,3.63,3.05,2.47,6.32,6.83,6.32,13.01,0,3.56-1.31,9.16-5.16,12.86-3.2,3.05-6.25,3.78-8.94,4.43l14.61,19.84h-12.06l-14.24-20.56h-.14v20.56h-9.96V9.44ZM612.17,35.16h6.39c8.21,0,9.59-5.45,9.59-8.28,0-2.98-1.82-8.14-9.59-8.14h-6.39v16.42Z"/><path class="cls-1" d="M580.59,157.25c7.39-.13,12.32-1.56,13.1-8.17l5.58-45.92c.91-7.14-2.59-11.68-8.04-10.64-5.45,1.04-10.12,10.9-12.06,14.92l-15.7,32.17c-4.15,8.56-11.42,10.25-16.22,10.25-7.65,0-13.88-6.36-13.88-14.4,0-5.58,3.89-10.64,9.86-15.44l26.08-20.76c11.29-8.95,15.96-12.32,24.39-12.32,7.78,0,13.1,5.58,14.79,14.4l11.81,62.4c2.72,14.53-1.69,25.69-15.05,25.69-10.64,0-15.7-6.75-15.7-14.66v-6.75c0-7.13-3.76-8.04-8.3-4.15l-12.71,10.9c-5.97,5.06-15.57,14.66-26.21,14.66-7.52,0-15.96-4.28-15.96-16.48,0-10.38,9.34-14.66,20.76-14.92l33.47-.78Z"/><path class="cls-1" d="M638.96,107.44c1.95-13.88,7.13-20.5,15.96-20.5,7.39,0,15.7,4.93,15.7,14.79,0,3.37-1.04,7.39-3.5,12.07l-27.37,50.85c-2.21,4.02-3.76,7.52-3.76,10.12,0,3.37,2.85,5.58,5.06,5.58,2.72,0,6.49-2.85,13.1-7.91l11.93-9.21c4.93-3.76,9.47-5.32,13.36-5.32,8.56,0,14.27,7.39,14.27,14.79s-5.58,14.79-19.2,14.79h-25.82c-14.14,0-17.9-4.8-17.9-18.16,0-2.08.13-4.41.52-7.01l7.65-54.88Z"/><path class="cls-1" d="M703.7,108.34l14.66-16.86c2.72-3.11,6.49-4.54,10.25-4.54,6.62,0,12.97,4.54,12.97,12.32,0,7.27-4.41,10.64-10.64,12.84l-14.27,4.93c-1.69.52-2.46,1.69-2.46,2.98,0,2.21,2.21,2.21,3.37,2.08l8.82-1.04c13.1-1.56,17.51,9.47,8.95,19.33l-24.78,28.28c-2.08,2.33-2.72,3.37-2.72,4.67,0,2.59,2.21,4.8,4.67,3.76l15.57-6.75c5.45-2.34,11.81-1.56,12.58,5.97.91,8.69-9.47,13.1-19.46,13.1-14.79,0-21.67-9.86-18.16-22.83l10.51-38.4c.26-.91.39-1.69.39-2.33,0-2.98-2.33-4.02-6.49-4.02h-5.58c-3.24,0-4.28-1.82-4.28-4.15,0-2.08,2.85-5.58,6.1-9.34Z"/><path class="cls-1" d="M815.13,165.3c5.32,14.14,2.46,24.13-11.42,24.13-12.45,0-15.05-7.14-15.31-20.89l-1.43-63.44c-.13-8.17-1.56-11.55-5.06-11.55-4.41,0-5.71,4.28-5.71,9.99v5.71c0,17.9-3.76,26.47-15.57,26.08-8.3-.26-14.53-7.39-14.53-15.44,0-18.03,14.27-31,37.75-31h44.37c13.49,0,17.77,7.78,17.77,14.4,0,14.92-19.2,22.44-31.13,9.21l-14.53-16.22c-1.3-1.43-2.72-2.08-3.89-2.08-3.5,0-4.8,2.98-2.21,10.38l20.89,60.71Z"/><path class="cls-1" d="M918.01,99.91c-.52-18.03,29.19-16.86,28.8.78-.13,5.32-4.28,12.19-7.91,18.03l-31.78,52.15c-5.19,8.56-12.71,18.55-22.05,18.55-19.07,0-21.28-27.76-.65-27.76h12.2c8.82,0,8.04-3.89,6.1-6.49l-39.96-53.45c-3.63-4.8-8.3-1.3-6.49,3.5l5.84,15.18c2.46,6.49.65,10.12-3.5,11.55-1.82.65-5.19-.78-6.62-4.54-4.67-12.32-2.08-40.48,16.87-40.48,7.39,0,10.9,3.63,16.61,11.81l26.08,37.62c4.93,7,7.65,2.46,7.52-1.69l-1.04-34.77Z"/></svg>