<?xml version="1.0" encoding="UTF-8"?><svg id="Layer_1" xmlns="http://www.w3.org/2000/svg" viewBox="0 0 1000 1000"><defs><style>.cls-1,.cls-2{stroke-width:0px;}.cls-2{fill:#ccc;}</style></defs><rect class="cls-1" width="1000" height="1000"/><path class="cls-2" d="M383.11,443.48c-52.92,25.32-69.1,46.18-102.15,79.06-36.32,36.14-60.57,89.62-68.31,140.27-7.74,50.65,5.38,105.3,39.73,143.32,34.34,38.02,88.87,49.31,139.52,41.56,21.99-3.37,65.46-18.64,94.65-46.21s42.71-66.79,16.43-93.88c-26.95-27.79-45.06-.34-76.11,5.36-42.77,7.85-71.14-15.3-92.87-52.98-21.72-37.67-17.03-88.8,11.19-121.89,41.63-48.8,116.37-47.14,156.02-97.56,31.92-40.6,17.76-87.21,28.69-124.83,14.08-48.44,52.65-89.07,100.29-105.65,28.78-10.01,63.02-10.75,87.51,7.37,25.81,19.1,34.5,54.08,34.23,86.18-.69,79.97-49.42,157.67-121.13,193.09-33.88,16.74-72.02,24.61-103.94,44.85-31.92,20.24-57.1,59.62-43.94,95.05,13.22,35.6,60.02,48.92,96.14,37.21,36.12-11.72,63.24-41.36,86.74-71.18,43.64-55.37,93.07-112.71,111.43-179.25,18.35-66.54,16.64-144.57-8.61-189.73-25.24-45.16-73.09-76.9-124.51-82.61-34.5-3.83-69.3,3.42-102.58,13.31-31.56,9.39-63.19,21.66-87.7,43.65-26.43,23.7-43.16,59.72-42.68,120.25.48,60.53,14,95.11-28.06,115.23Z"/><path class="cls-2" d="M648.4,710.23c-22.69,15.23-2.83,27.26-22.81,39.4-19.98,12.14-8.31,41.96-.85,59.46,7.45,17.5,35.22,20.96,47.49,24.12,17.61,4.53,35.97-2.06,52.92-8.63,8.01-3.1,16.09-6.27,23.17-11.13,7.07-4.87,13.15-11.67,15.5-19.93,3.49-12.3-1.79-25.48-9.14-35.94-7.35-10.46-16.83-19.38-23.42-30.33-2.71-4.51-5.01-9.43-8.97-12.9-5.51-4.82-10.7-10.92-32.57-13.51s-32.75,3.65-41.31,9.4Z"/></svg>